<svg xmlns="http://www.w3.org/2000/svg" viewBox="0 0 256 256" width="256" height="256" role="img" aria-label="Team S, Prereq-uisites">
  <defs>
    <pattern id="grid" width="24" height="24" patternUnits="userSpaceOnUse">
      <circle cx="12" cy="12" r="1.6" fill="#16232B" fill-opacity="0.16"/>
    </pattern>
  </defs>
  <rect width="256" height="256" fill="#F1EBE0"/>
  <rect width="256" height="256" fill="url(#grid)"/>

  <!-- dependency tree -->
  <g fill="none" stroke="#16232B" stroke-width="9" stroke-linecap="round" stroke-linejoin="round">
    <path d="M64 72v112h28"/>
    <path d="M64 72h28"/>
    <path d="M64 128h28"/>
  </g>

  <!-- bracketed checkboxes -->
  <g fill="none" stroke="#16232B" stroke-width="14" stroke-linecap="round" stroke-linejoin="round">
    <path d="M114 50h-14v44h14"/><path d="M162 50h14v44h-14"/>
    <path d="M114 106h-14v44h14"/><path d="M162 106h14v44h-14"/>
    <path d="M114 162h-14v44h14"/><path d="M162 162h14v44h-14"/>
  </g>

  <!-- resolved -->
  <g fill="none" stroke="#16232B" stroke-width="9" stroke-linecap="round" stroke-linejoin="round">
    <path d="M126 72l8 10 18-22"/>
    <path d="M126 128l8 10 18-22"/>
  </g>

  <!-- pending -->
  <rect x="129" y="171" width="18" height="26" fill="#16232B"/>
</svg>
